<?xml version="1.0" encoding="UTF-8" standalone="no"?>
<!DOCTYPE svg PUBLIC "-//W3C//DTD SVG 1.1//EN"
 "http://www.w3.org/Graphics/SVG/1.1/DTD/svg11.dtd">
<!-- Generated by graphviz version 12.1.2 (20240928.0832)
 -->
<!-- Title: public.api_keys Pages: 1 -->
<svg width="560pt" height="1033pt"
 viewBox="0.00 0.00 560.36 1033.20" xmlns="http://www.w3.org/2000/svg" xmlns:xlink="http://www.w3.org/1999/xlink">
<g id="graph0" class="graph" transform="scale(1 1) rotate(0) translate(4 1029.2)">
<title>public.api_keys</title>
<polygon fill="white" stroke="none" points="-4,4 -4,-1029.2 556.36,-1029.2 556.36,4 -4,4"/>
<!-- public.api_keys -->
<g id="node1" class="node">
<title>public.api_keys</title>
<polygon fill="#efefef" stroke="none" points="50.98,-943.4 50.98,-979 313.99,-979 313.99,-943.4 50.98,-943.4"/>
<polygon fill="none" stroke="black" points="50.98,-943.4 50.98,-979 313.99,-979 313.99,-943.4 50.98,-943.4"/>
<text text-anchor="start" x="63.5" y="-956.8" font-family="Arial Bold" font-size="18.00">public.api_keys</text>
<text text-anchor="start" x="176.98" y="-956.8" font-family="Arial" font-size="14.00">    </text>
<text text-anchor="start" x="208.09" y="-956.8" font-family="Arial" font-size="14.00" fill="#666666">[BASE TABLE]</text>
<polygon fill="none" stroke="black" points="50.98,-912.6 50.98,-943.4 313.99,-943.4 313.99,-912.6 50.98,-912.6"/>
<text text-anchor="start" x="57.98" y="-924.8" font-family="Arial" font-size="14.00">id </text>
<text text-anchor="start" x="72.77" y="-924.8" font-family="Arial" font-size="14.00" fill="#666666">[uuid]</text>
<polygon fill="none" stroke="black" points="50.98,-881.8 50.98,-912.6 313.99,-912.6 313.99,-881.8 50.98,-881.8"/>
<text text-anchor="start" x="57.98" y="-894" font-family="Arial" font-size="14.00">user_id </text>
<text text-anchor="start" x="107.79" y="-894" font-family="Arial" font-size="14.00" fill="#666666">[uuid]</text>
<polygon fill="none" stroke="black" points="50.98,-851 50.98,-881.8 313.99,-881.8 313.99,-851 50.98,-851"/>
<text text-anchor="start" x="57.98" y="-863.2" font-family="Arial" font-size="14.00">name </text>
<text text-anchor="start" x="96.89" y="-863.2" font-family="Arial" font-size="14.00" fill="#666666">[varchar(50)]</text>
<polygon fill="none" stroke="black" points="50.98,-820.2 50.98,-851 313.99,-851 313.99,-820.2 50.98,-820.2"/>
<text text-anchor="start" x="57.98" y="-832.4" font-family="Arial" font-size="14.00">key_prefix </text>
<text text-anchor="start" x="125.68" y="-832.4" font-family="Arial" font-size="14.00" fill="#666666">[varchar(16)]</text>
<polygon fill="none" stroke="black" points="50.98,-789.4 50.98,-820.2 313.99,-820.2 313.99,-789.4 50.98,-789.4"/>
<text text-anchor="start" x="57.98" y="-801.6" font-family="Arial" font-size="14.00">key_hash </text>
<text text-anchor="start" x="121.8" y="-801.6" font-family="Arial" font-size="14.00" fill="#666666">[character(64)]</text>
<polygon fill="none" stroke="black" points="50.98,-758.6 50.98,-789.4 313.99,-789.4 313.99,-758.6 50.98,-758.6"/>
<text text-anchor="start" x="57.98" y="-770.8" font-family="Arial" font-size="14.00">scopes </text>
<text text-anchor="start" x="106.23" y="-770.8" font-family="Arial" font-size="14.00" fill="#666666">[varchar(100)]</text>
<polygon fill="none" stroke="black" points="50.98,-727.8 50.98,-758.6 313.99,-758.6 313.99,-727.8 50.98,-727.8"/>
<text text-anchor="start" x="57.98" y="-740" font-family="Arial" font-size="14.00">expires_at </text>
<text text-anchor="start" x="126.46" y="-740" font-family="Arial" font-size="14.00" fill="#666666">[timestamp with time zone]</text>
<polygon fill="none" stroke="black" points="50.98,-697 50.98,-727.8 313.99,-727.8 313.99,-697 50.98,-697"/>
<text text-anchor="start" x="57.98" y="-709.2" font-family="Arial" font-size="14.00">revoked_at </text>
<text text-anchor="start" x="131.14" y="-709.2" font-family="Arial" font-size="14.00" fill="#666666">[timestamp with time zone]</text>
<polygon fill="none" stroke="black" points="50.98,-666.2 50.98,-697 313.99,-697 313.99,-666.2 50.98,-666.2"/>
<text text-anchor="start" x="57.98" y="-678.4" font-family="Arial" font-size="14.00">last_used_at </text>
<text text-anchor="start" x="141.26" y="-678.4" font-family="Arial" font-size="14.00" fill="#666666">[timestamp with time zone]</text>
<polygon fill="none" stroke="black" points="50.98,-635.4 50.98,-666.2 313.99,-666.2 313.99,-635.4 50.98,-635.4"/>
<text text-anchor="start" x="57.98" y="-647.6" font-family="Arial" font-size="14.00">created_at </text>
<text text-anchor="start" x="128.03" y="-647.6" font-family="Arial" font-size="14.00" fill="#666666">[timestamp with time zone]</text>
<polygon fill="none" stroke="black" stroke-width="3" points="49.48,-633.9 49.48,-980.5 315.49,-980.5 315.49,-633.9 49.48,-633.9"/>
</g>
<!-- public.users -->
<g id="node2" class="node">
<title>public.users</title>
<polygon fill="#efefef" stroke="none" points="43.2,-474.4 43.2,-510 321.76,-510 321.76,-474.4 43.2,-474.4"/>
<polygon fill="none" stroke="black" points="43.2,-474.4 43.2,-510 321.76,-510 321.76,-474.4 43.2,-474.4"/>
<text text-anchor="start" x="77" y="-487.8" font-family="Arial Bold" font-size="18.00">public.users</text>
<text text-anchor="start" x="163.48" y="-487.8" font-family="Arial" font-size="14.00">    </text>
<text text-anchor="start" x="194.6" y="-487.8" font-family="Arial" font-size="14.00" fill="#666666">[BASE TABLE]</text>
<polygon fill="none" stroke="black" points="43.2,-443.6 43.2,-474.4 321.76,-474.4 321.76,-443.6 43.2,-443.6"/>
<text text-anchor="start" x="50.2" y="-455.8" font-family="Arial" font-size="14.00">id </text>
<text text-anchor="start" x="64.99" y="-455.8" font-family="Arial" font-size="14.00" fill="#666666">[uuid]</text>
<polygon fill="none" stroke="black" points="43.2,-412.8 43.2,-443.6 321.76,-443.6 321.76,-412.8 43.2,-412.8"/>
<text text-anchor="start" x="50.2" y="-425" font-family="Arial" font-size="14.00">email </text>
<text text-anchor="start" x="87.54" y="-425" font-family="Arial" font-size="14.00" fill="#666666">[citext]</text>
<polygon fill="none" stroke="black" points="43.2,-382 43.2,-412.8 321.76,-412.8 321.76,-382 43.2,-382"/>
<text text-anchor="start" x="50.2" y="-394.2" font-family="Arial" font-size="14.00">password_hash </text>
<text text-anchor="start" x="152.15" y="-394.2" font-family="Arial" font-size="14.00" fill="#666666">[text]</text>
<polygon fill="none" stroke="black" points="43.2,-351.2 43.2,-382 321.76,-382 321.76,-351.2 43.2,-351.2"/>
<text text-anchor="start" x="50.2" y="-363.4" font-family="Arial" font-size="14.00">display_name </text>
<text text-anchor="start" x="140.48" y="-363.4" font-family="Arial" font-size="14.00" fill="#666666">[varchar(50)]</text>
<polygon fill="none" stroke="black" points="43.2,-320.4 43.2,-351.2 321.76,-351.2 321.76,-320.4 43.2,-320.4"/>
<text text-anchor="start" x="50.2" y="-332.6" font-family="Arial" font-size="14.00">handle </text>
<text text-anchor="start" x="96.13" y="-332.6" font-family="Arial" font-size="14.00" fill="#666666">[varchar(30)]</text>
<polygon fill="none" stroke="black" points="43.2,-289.6 43.2,-320.4 321.76,-320.4 321.76,-289.6 43.2,-289.6"/>
<text text-anchor="start" x="50.2" y="-301.8" font-family="Arial" font-size="14.00">avatar_asset_id </text>
<text text-anchor="start" x="152.93" y="-301.8" font-family="Arial" font-size="14.00" fill="#666666">[uuid]</text>
<polygon fill="none" stroke="black" points="43.2,-258.8 43.2,-289.6 321.76,-289.6 321.76,-258.8 43.2,-258.8"/>
<text text-anchor="start" x="50.2" y="-271" font-family="Arial" font-size="14.00">preferred_locale </text>
<text text-anchor="start" x="155.26" y="-271" font-family="Arial" font-size="14.00" fill="#666666">[varchar(10)]</text>
<polygon fill="none" stroke="black" points="43.2,-228 43.2,-258.8 321.76,-258.8 321.76,-228 43.2,-228"/>
<text text-anchor="start" x="50.2" y="-240.2" font-family="Arial" font-size="14.00">status </text>
<text text-anchor="start" x="91.44" y="-240.2" font-family="Arial" font-size="14.00" fill="#666666">[varchar(20)]</text>
<polygon fill="none" stroke="black" points="43.2,-197.2 43.2,-228 321.76,-228 321.76,-197.2 43.2,-197.2"/>
<text text-anchor="start" x="50.2" y="-209.4" font-family="Arial" font-size="14.00">level </text>
<text text-anchor="start" x="82.88" y="-209.4" font-family="Arial" font-size="14.00" fill="#666666">[integer]</text>
<polygon fill="none" stroke="black" points="43.2,-166.4 43.2,-197.2 321.76,-197.2 321.76,-166.4 43.2,-166.4"/>
<text text-anchor="start" x="50.2" y="-178.6" font-family="Arial" font-size="14.00">experience_points </text>
<text text-anchor="start" x="167.72" y="-178.6" font-family="Arial" font-size="14.00" fill="#666666">[integer]</text>
<polygon fill="none" stroke="black" points="43.2,-135.6 43.2,-166.4 321.76,-166.4 321.76,-135.6 43.2,-135.6"/>
<text text-anchor="start" x="50.2" y="-147.8" font-family="Arial" font-size="14.00">created_at </text>
<text text-anchor="start" x="120.25" y="-147.8" font-family="Arial" font-size="14.00" fill="#666666">[timestamp with time zone]</text>
<polygon fill="none" stroke="black" points="43.2,-104.8 43.2,-135.6 321.76,-135.6 321.76,-104.8 43.2,-104.8"/>
<text text-anchor="start" x="50.2" y="-117" font-family="Arial" font-size="14.00">updated_at </text>
<text text-anchor="start" x="124.16" y="-117" font-family="Arial" font-size="14.00" fill="#666666">[timestamp with time zone]</text>
<polygon fill="none" stroke="black" points="43.2,-74 43.2,-104.8 321.76,-104.8 321.76,-74 43.2,-74"/>
<text text-anchor="start" x="50.2" y="-86.2" font-family="Arial" font-size="14.00">anonymized_at </text>
<text text-anchor="start" x="149.04" y="-86.2" font-family="Arial" font-size="14.00" fill="#666666">[timestamp with time zone]</text>
<polygon fill="none" stroke="black" points="43.2,-43.2 43.2,-74 321.76,-74 321.76,-43.2 43.2,-43.2"/>
<text text-anchor="start" x="50.2" y="-55.4" font-family="Arial" font-size="14.00">rating </text>
<text text-anchor="start" x="89.11" y="-55.4" font-family="Arial" font-size="14.00" fill="#666666">[integer]</text>
</g>
<!-- public.api_keys&#45;&gt;public.users -->
<g id="edge1" class="edge">
<title>public.api_keys:user_id&#45;&gt;public.users:id</title>
<path fill="none" stroke="black" d="M325.19,-895.53C412.8,-866.11 416.64,-459 322.76,-459"/>
<polygon fill="black" stroke="black" points="325.18,-895.53 314.59,-892.71 319.92,-896.39 315.65,-897.09 315.65,-897.09 315.65,-897.09 319.92,-896.39 316.04,-901.59 325.18,-895.53"/>
<text text-anchor="start" x="321.99" y="-907.2" font-family="Arial" font-size="10.00">FOREIGN KEY (user_id) REFERENCES users(id)</text>
</g>
</g>
</svg>
