<?xml version="1.0" encoding="UTF-8" standalone="no"?>
<!DOCTYPE svg PUBLIC "-//W3C//DTD SVG 1.1//EN"
 "http://www.w3.org/Graphics/SVG/1.1/DTD/svg11.dtd">
<!-- Generated by graphviz version 12.1.2 (20240928.0832)
 -->
<!-- Title: public.users Pages: 1 -->
<svg width="2734pt" height="1126pt"
 viewBox="0.00 0.00 2733.75 1125.60" xmlns="http://www.w3.org/2000/svg" xmlns:xlink="http://www.w3.org/1999/xlink">
<g id="graph0" class="graph" transform="scale(1 1) rotate(0) translate(4 1121.6)">
<title>public.users</title>
<polygon fill="white" stroke="none" points="-4,4 -4,-1121.6 2729.75,-1121.6 2729.75,4 -4,4"/>
<!-- public.users -->
<g id="node1" class="node">
<title>public.users</title>
<polygon fill="#efefef" stroke="none" points="771.8,-477.4 771.8,-513 1050.37,-513 1050.37,-477.4 771.8,-477.4"/>
<polygon fill="none" stroke="black" points="771.8,-477.4 771.8,-513 1050.37,-513 1050.37,-477.4 771.8,-477.4"/>
<text text-anchor="start" x="805.6" y="-490.8" font-family="Arial Bold" font-size="18.00">public.users</text>
<text text-anchor="start" x="892.08" y="-490.8" font-family="Arial" font-size="14.00">    </text>
<text text-anchor="start" x="923.2" y="-490.8" font-family="Arial" font-size="14.00" fill="#666666">[BASE TABLE]</text>
<polygon fill="none" stroke="black" points="771.8,-446.6 771.8,-477.4 1050.37,-477.4 1050.37,-446.6 771.8,-446.6"/>
<text text-anchor="start" x="778.8" y="-458.8" font-family="Arial" font-size="14.00">id </text>
<text text-anchor="start" x="793.59" y="-458.8" font-family="Arial" font-size="14.00" fill="#666666">[uuid]</text>
<polygon fill="none" stroke="black" points="771.8,-415.8 771.8,-446.6 1050.37,-446.6 1050.37,-415.8 771.8,-415.8"/>
<text text-anchor="start" x="778.8" y="-428" font-family="Arial" font-size="14.00">email </text>
<text text-anchor="start" x="816.15" y="-428" font-family="Arial" font-size="14.00" fill="#666666">[citext]</text>
<polygon fill="none" stroke="black" points="771.8,-385 771.8,-415.8 1050.37,-415.8 1050.37,-385 771.8,-385"/>
<text text-anchor="start" x="778.8" y="-397.2" font-family="Arial" font-size="14.00">password_hash </text>
<text text-anchor="start" x="880.75" y="-397.2" font-family="Arial" font-size="14.00" fill="#666666">[text]</text>
<polygon fill="none" stroke="black" points="771.8,-354.2 771.8,-385 1050.37,-385 1050.37,-354.2 771.8,-354.2"/>
<text text-anchor="start" x="778.8" y="-366.4" font-family="Arial" font-size="14.00">display_name </text>
<text text-anchor="start" x="869.08" y="-366.4" font-family="Arial" font-size="14.00" fill="#666666">[varchar(50)]</text>
<polygon fill="none" stroke="black" points="771.8,-323.4 771.8,-354.2 1050.37,-354.2 1050.37,-323.4 771.8,-323.4"/>
<text text-anchor="start" x="778.8" y="-335.6" font-family="Arial" font-size="14.00">handle </text>
<text text-anchor="start" x="824.73" y="-335.6" font-family="Arial" font-size="14.00" fill="#666666">[varchar(30)]</text>
<polygon fill="none" stroke="black" points="771.8,-292.6 771.8,-323.4 1050.37,-323.4 1050.37,-292.6 771.8,-292.6"/>
<text text-anchor="start" x="778.8" y="-304.8" font-family="Arial" font-size="14.00">avatar_asset_id </text>
<text text-anchor="start" x="881.53" y="-304.8" font-family="Arial" font-size="14.00" fill="#666666">[uuid]</text>
<polygon fill="none" stroke="black" points="771.8,-261.8 771.8,-292.6 1050.37,-292.6 1050.37,-261.8 771.8,-261.8"/>
<text text-anchor="start" x="778.8" y="-274" font-family="Arial" font-size="14.00">preferred_locale </text>
<text text-anchor="start" x="883.87" y="-274" font-family="Arial" font-size="14.00" fill="#666666">[varchar(10)]</text>
<polygon fill="none" stroke="black" points="771.8,-231 771.8,-261.8 1050.37,-261.8 1050.37,-231 771.8,-231"/>
<text text-anchor="start" x="778.8" y="-243.2" font-family="Arial" font-size="14.00">status </text>
<text text-anchor="start" x="820.04" y="-243.2" font-family="Arial" font-size="14.00" fill="#666666">[varchar(20)]</text>
<polygon fill="none" stroke="black" points="771.8,-200.2 771.8,-231 1050.37,-231 1050.37,-200.2 771.8,-200.2"/>
<text text-anchor="start" x="778.8" y="-212.4" font-family="Arial" font-size="14.00">level </text>
<text text-anchor="start" x="811.49" y="-212.4" font-family="Arial" font-size="14.00" fill="#666666">[integer]</text>
<polygon fill="none" stroke="black" points="771.8,-169.4 771.8,-200.2 1050.37,-200.2 1050.37,-169.4 771.8,-169.4"/>
<text text-anchor="start" x="778.8" y="-181.6" font-family="Arial" font-size="14.00">experience_points </text>
<text text-anchor="start" x="896.33" y="-181.6" font-family="Arial" font-size="14.00" fill="#666666">[integer]</text>
<polygon fill="none" stroke="black" points="771.8,-138.6 771.8,-169.4 1050.37,-169.4 1050.37,-138.6 771.8,-138.6"/>
<text text-anchor="start" x="778.8" y="-150.8" font-family="Arial" font-size="14.00">created_at </text>
<text text-anchor="start" x="848.85" y="-150.8" font-family="Arial" font-size="14.00" fill="#666666">[timestamp with time zone]</text>
<polygon fill="none" stroke="black" points="771.8,-107.8 771.8,-138.6 1050.37,-138.6 1050.37,-107.8 771.8,-107.8"/>
<text text-anchor="start" x="778.8" y="-120" font-family="Arial" font-size="14.00">updated_at </text>
<text text-anchor="start" x="852.76" y="-120" font-family="Arial" font-size="14.00" fill="#666666">[timestamp with time zone]</text>
<polygon fill="none" stroke="black" points="771.8,-77 771.8,-107.8 1050.37,-107.8 1050.37,-77 771.8,-77"/>
<text text-anchor="start" x="778.8" y="-89.2" font-family="Arial" font-size="14.00">anonymized_at </text>
<text text-anchor="start" x="877.64" y="-89.2" font-family="Arial" font-size="14.00" fill="#666666">[timestamp with time zone]</text>
<polygon fill="none" stroke="black" points="771.8,-46.2 771.8,-77 1050.37,-77 1050.37,-46.2 771.8,-46.2"/>
<text text-anchor="start" x="778.8" y="-58.4" font-family="Arial" font-size="14.00">rating </text>
<text text-anchor="start" x="817.71" y="-58.4" font-family="Arial" font-size="14.00" fill="#666666">[integer]</text>
<polygon fill="none" stroke="black" stroke-width="3" points="770.3,-44.7 770.3,-514.5 1051.87,-514.5 1051.87,-44.7 770.3,-44.7"/>
</g>
<!-- public.blocks -->
<g id="node2" class="node">
<title>public.blocks</title>
<polygon fill="#efefef" stroke="none" points="43.2,-900.2 43.2,-935.8 292.97,-935.8 292.97,-900.2 43.2,-900.2"/>
<polygon fill="none" stroke="black" points="43.2,-900.2 43.2,-935.8 292.97,-935.8 292.97,-900.2 43.2,-900.2"/>
<text text-anchor="start" x="57.6" y="-913.6" font-family="Arial Bold" font-size="18.00">public.blocks</text>
<text text-anchor="start" x="154.08" y="-913.6" font-family="Arial" font-size="14.00">    </text>
<text text-anchor="start" x="185.2" y="-913.6" font-family="Arial" font-size="14.00" fill="#666666">[BASE TABLE]</text>
<polygon fill="none" stroke="black" points="43.2,-869.4 43.2,-900.2 292.97,-900.2 292.97,-869.4 43.2,-869.4"/>
<text text-anchor="start" x="50.2" y="-881.6" font-family="Arial" font-size="14.00">id </text>
<text text-anchor="start" x="64.99" y="-881.6" font-family="Arial" font-size="14.00" fill="#666666">[uuid]</text>
<polygon fill="none" stroke="black" points="43.2,-838.6 43.2,-869.4 292.97,-869.4 292.97,-838.6 43.2,-838.6"/>
<text text-anchor="start" x="50.2" y="-850.8" font-family="Arial" font-size="14.00">blocker_user_id </text>
<text text-anchor="start" x="152.92" y="-850.8" font-family="Arial" font-size="14.00" fill="#666666">[uuid]</text>
<polygon fill="none" stroke="black" points="43.2,-807.8 43.2,-838.6 292.97,-838.6 292.97,-807.8 43.2,-807.8"/>
<text text-anchor="start" x="50.2" y="-820" font-family="Arial" font-size="14.00">blocked_user_id </text>
<text text-anchor="start" x="156.05" y="-820" font-family="Arial" font-size="14.00" fill="#666666">[uuid]</text>
<polygon fill="none" stroke="black" points="43.2,-777 43.2,-807.8 292.97,-807.8 292.97,-777 43.2,-777"/>
<text text-anchor="start" x="50.2" y="-789.2" font-family="Arial" font-size="14.00">created_at </text>
<text text-anchor="start" x="120.25" y="-789.2" font-family="Arial" font-size="14.00" fill="#666666">[timestamp with time zone]</text>
</g>
<!-- public.blocks&#45;&gt;public.users -->
<g id="edge1" class="edge">
<title>public.blocks:blocked_user_id&#45;&gt;public.users:id</title>
<path fill="none" stroke="black" d="M304.36,-822.62C389.18,-812.34 277.29,-668.84 345.09,-595.2 412.22,-522.27 671.68,-462 770.8,-462"/>
<polygon fill="black" stroke="black" points="304.29,-822.62 294.05,-818.69 298.96,-822.92 294.64,-823.16 294.64,-823.16 294.64,-823.16 298.96,-822.92 294.56,-827.67 304.29,-822.62"/>
<text text-anchor="start" x="300.97" y="-833.2" font-family="Arial" font-size="10.00">FOREIGN KEY (blocked_user_id) REFERENCES users(id)</text>
</g>
<!-- public.blocks&#45;&gt;public.users -->
<g id="edge2" class="edge">
<title>public.blocks:blocker_user_id&#45;&gt;public.users:id</title>
<path fill="none" stroke="black" d="M304.21,-853.51C402.41,-843.36 269.23,-679.74 345.09,-595.2 411.28,-521.42 671.68,-462 770.8,-462"/>
<polygon fill="black" stroke="black" points="304.29,-853.5 294.09,-849.49 298.97,-853.76 294.64,-853.97 294.64,-853.97 294.64,-853.97 298.97,-853.76 294.52,-858.48 304.29,-853.5"/>
<text text-anchor="start" x="300.97" y="-864" font-family="Arial" font-size="10.00">FOREIGN KEY (blocker_user_id) REFERENCES users(id)</text>
</g>
<!-- public.friendships -->
<g id="node3" class="node">
<title>public.friendships</title>
<polygon fill="#efefef" stroke="none" points="397.1,-931 397.1,-966.6 665.07,-966.6 665.07,-931 397.1,-931"/>
<polygon fill="none" stroke="black" points="397.1,-931 397.1,-966.6 665.07,-966.6 665.07,-931 397.1,-931"/>
<text text-anchor="start" x="404.1" y="-944.4" font-family="Arial Bold" font-size="18.00">public.friendships</text>
<text text-anchor="start" x="533.58" y="-944.4" font-family="Arial" font-size="14.00">    </text>
<text text-anchor="start" x="564.7" y="-944.4" font-family="Arial" font-size="14.00" fill="#666666">[BASE TABLE]</text>
<polygon fill="none" stroke="black" points="397.1,-900.2 397.1,-931 665.07,-931 665.07,-900.2 397.1,-900.2"/>
<text text-anchor="start" x="404.1" y="-912.4" font-family="Arial" font-size="14.00">user_low_id </text>
<text text-anchor="start" x="482.7" y="-912.4" font-family="Arial" font-size="14.00" fill="#666666">[uuid]</text>
<polygon fill="none" stroke="black" points="397.1,-869.4 397.1,-900.2 665.07,-900.2 665.07,-869.4 397.1,-869.4"/>
<text text-anchor="start" x="404.1" y="-881.6" font-family="Arial" font-size="14.00">user_high_id </text>
<text text-anchor="start" x="488.16" y="-881.6" font-family="Arial" font-size="14.00" fill="#666666">[uuid]</text>
<polygon fill="none" stroke="black" points="397.1,-838.6 397.1,-869.4 665.07,-869.4 665.07,-838.6 397.1,-838.6"/>
<text text-anchor="start" x="404.1" y="-850.8" font-family="Arial" font-size="14.00">requested_by_user_id </text>
<text text-anchor="start" x="546.53" y="-850.8" font-family="Arial" font-size="14.00" fill="#666666">[uuid]</text>
<polygon fill="none" stroke="black" points="397.1,-807.8 397.1,-838.6 665.07,-838.6 665.07,-807.8 397.1,-807.8"/>
<text text-anchor="start" x="404.1" y="-820" font-family="Arial" font-size="14.00">status </text>
<text text-anchor="start" x="445.34" y="-820" font-family="Arial" font-size="14.00" fill="#666666">[varchar(20)]</text>
<polygon fill="none" stroke="black" points="397.1,-777 397.1,-807.8 665.07,-807.8 665.07,-777 397.1,-777"/>
<text text-anchor="start" x="404.1" y="-789.2" font-family="Arial" font-size="14.00">created_at </text>
<text text-anchor="start" x="474.15" y="-789.2" font-family="Arial" font-size="14.00" fill="#666666">[timestamp with time zone]</text>
<polygon fill="none" stroke="black" points="397.1,-746.2 397.1,-777 665.07,-777 665.07,-746.2 397.1,-746.2"/>
<text text-anchor="start" x="404.1" y="-758.4" font-family="Arial" font-size="14.00">updated_at </text>
<text text-anchor="start" x="478.06" y="-758.4" font-family="Arial" font-size="14.00" fill="#666666">[timestamp with time zone]</text>
</g>
<!-- public.friendships&#45;&gt;public.users -->
<g id="edge3" class="edge">
<title>public.friendships:user_high_id&#45;&gt;public.users:id</title>
<path fill="none" stroke="black" d="M676.26,-882.69C727.92,-859.64 700.12,-654.46 717.09,-595.2 734.66,-533.83 706.97,-462 770.8,-462"/>
<polygon fill="black" stroke="black" points="676.19,-882.7 665.49,-880.33 670.97,-883.79 666.73,-884.66 666.73,-884.66 666.73,-884.66 670.97,-883.79 667.31,-889.14 676.19,-882.7"/>
<text text-anchor="start" x="673.07" y="-894.8" font-family="Arial" font-size="10.00">FOREIGN KEY (user_high_id) REFERENCES users(id)</text>
</g>
<!-- public.friendships&#45;&gt;public.users -->
<g id="edge4" class="edge">
<title>public.friendships:user_low_id&#45;&gt;public.users:id</title>
<path fill="none" stroke="black" d="M676.21,-913.72C734.22,-890.58 698.79,-661.15 717.09,-595.2 734.15,-533.69 706.97,-462 770.8,-462"/>
<polygon fill="black" stroke="black" points="676.23,-913.71 665.58,-911.11 670.99,-914.69 666.73,-915.48 666.73,-915.48 666.73,-915.48 670.99,-914.69 667.22,-919.96 676.23,-913.71"/>
<text text-anchor="start" x="673.07" y="-925.6" font-family="Arial" font-size="10.00">FOREIGN KEY (user_low_id) REFERENCES users(id)</text>
</g>
<!-- public.media_assets -->
<g id="node4" class="node">
<title>public.media_assets</title>
<polygon fill="#efefef" stroke="none" points="769.61,-1038.8 769.61,-1074.4 1052.56,-1074.4 1052.56,-1038.8 769.61,-1038.8"/>
<polygon fill="none" stroke="black" points="769.61,-1038.8 769.61,-1074.4 1052.56,-1074.4 1052.56,-1038.8 769.61,-1038.8"/>
<text text-anchor="start" x="776.61" y="-1052.2" font-family="Arial Bold" font-size="18.00">public.media_assets</text>
<text text-anchor="start" x="921.07" y="-1052.2" font-family="Arial" font-size="14.00">    </text>
<text text-anchor="start" x="952.19" y="-1052.2" font-family="Arial" font-size="14.00" fill="#666666">[BASE TABLE]</text>
<polygon fill="none" stroke="black" points="769.61,-1008 769.61,-1038.8 1052.56,-1038.8 1052.56,-1008 769.61,-1008"/>
<text text-anchor="start" x="776.61" y="-1020.2" font-family="Arial" font-size="14.00">id </text>
<text text-anchor="start" x="791.39" y="-1020.2" font-family="Arial" font-size="14.00" fill="#666666">[uuid]</text>
<polygon fill="none" stroke="black" points="769.61,-977.2 769.61,-1008 1052.56,-1008 1052.56,-977.2 769.61,-977.2"/>
<text text-anchor="start" x="776.61" y="-989.4" font-family="Arial" font-size="14.00">owner_user_id </text>
<text text-anchor="start" x="872.33" y="-989.4" font-family="Arial" font-size="14.00" fill="#666666">[uuid]</text>
<polygon fill="none" stroke="black" points="769.61,-946.4 769.61,-977.2 1052.56,-977.2 1052.56,-946.4 769.61,-946.4"/>
<text text-anchor="start" x="776.61" y="-958.6" font-family="Arial" font-size="14.00">purpose </text>
<text text-anchor="start" x="831.09" y="-958.6" font-family="Arial" font-size="14.00" fill="#666666">[varchar(30)]</text>
<polygon fill="none" stroke="black" points="769.61,-915.6 769.61,-946.4 1052.56,-946.4 1052.56,-915.6 769.61,-915.6"/>
<text text-anchor="start" x="776.61" y="-927.8" font-family="Arial" font-size="14.00">storage_key </text>
<text text-anchor="start" x="856.77" y="-927.8" font-family="Arial" font-size="14.00" fill="#666666">[text]</text>
<polygon fill="none" stroke="black" points="769.61,-884.8 769.61,-915.6 1052.56,-915.6 1052.56,-884.8 769.61,-884.8"/>
<text text-anchor="start" x="776.61" y="-897" font-family="Arial" font-size="14.00">original_filename </text>
<text text-anchor="start" x="886.34" y="-897" font-family="Arial" font-size="14.00" fill="#666666">[varchar(255)]</text>
<polygon fill="none" stroke="black" points="769.61,-854 769.61,-884.8 1052.56,-884.8 1052.56,-854 769.61,-854"/>
<text text-anchor="start" x="776.61" y="-866.2" font-family="Arial" font-size="14.00">mime_type </text>
<text text-anchor="start" x="848.97" y="-866.2" font-family="Arial" font-size="14.00" fill="#666666">[varchar(100)]</text>
<polygon fill="none" stroke="black" points="769.61,-823.2 769.61,-854 1052.56,-854 1052.56,-823.2 769.61,-823.2"/>
<text text-anchor="start" x="776.61" y="-835.4" font-family="Arial" font-size="14.00">size_bytes </text>
<text text-anchor="start" x="846.64" y="-835.4" font-family="Arial" font-size="14.00" fill="#666666">[bigint]</text>
<polygon fill="none" stroke="black" points="769.61,-792.4 769.61,-823.2 1052.56,-823.2 1052.56,-792.4 769.61,-792.4"/>
<text text-anchor="start" x="776.61" y="-804.6" font-family="Arial" font-size="14.00">width </text>
<text text-anchor="start" x="813.18" y="-804.6" font-family="Arial" font-size="14.00" fill="#666666">[integer]</text>
<polygon fill="none" stroke="black" points="769.61,-761.6 769.61,-792.4 1052.56,-792.4 1052.56,-761.6 769.61,-761.6"/>
<text text-anchor="start" x="776.61" y="-773.8" font-family="Arial" font-size="14.00">height </text>
<text text-anchor="start" x="818.64" y="-773.8" font-family="Arial" font-size="14.00" fill="#666666">[integer]</text>
<polygon fill="none" stroke="black" points="769.61,-730.8 769.61,-761.6 1052.56,-761.6 1052.56,-730.8 769.61,-730.8"/>
<text text-anchor="start" x="776.61" y="-743" font-family="Arial" font-size="14.00">checksum_sha256 </text>
<text text-anchor="start" x="897.24" y="-743" font-family="Arial" font-size="14.00" fill="#666666">[character(64)]</text>
<polygon fill="none" stroke="black" points="769.61,-700 769.61,-730.8 1052.56,-730.8 1052.56,-700 769.61,-700"/>
<text text-anchor="start" x="776.61" y="-712.2" font-family="Arial" font-size="14.00">status </text>
<text text-anchor="start" x="817.85" y="-712.2" font-family="Arial" font-size="14.00" fill="#666666">[varchar(20)]</text>
<polygon fill="none" stroke="black" points="769.61,-669.2 769.61,-700 1052.56,-700 1052.56,-669.2 769.61,-669.2"/>
<text text-anchor="start" x="776.61" y="-681.4" font-family="Arial" font-size="14.00">created_at </text>
<text text-anchor="start" x="846.66" y="-681.4" font-family="Arial" font-size="14.00" fill="#666666">[timestamp with time zone]</text>
<polygon fill="none" stroke="black" points="769.61,-638.4 769.61,-669.2 1052.56,-669.2 1052.56,-638.4 769.61,-638.4"/>
<text text-anchor="start" x="776.61" y="-650.6" font-family="Arial" font-size="14.00">deleted_at </text>
<text text-anchor="start" x="845.89" y="-650.6" font-family="Arial" font-size="14.00" fill="#666666">[timestamp with time zone]</text>
</g>
<!-- public.media_assets&#45;&gt;public.users -->
<g id="edge5" class="edge">
<title>public.media_assets:owner_user_id&#45;&gt;public.users:id</title>
<path fill="none" stroke="black" d="M1062.69,-988.01C1112.11,-936.15 1107.1,-462 1051.37,-462"/>
<polygon fill="black" stroke="black" points="1062.8,-987.96 1051.84,-988.43 1058.03,-990.35 1054.16,-992.3 1054.16,-992.3 1054.16,-992.3 1058.03,-990.35 1055.88,-996.47 1062.8,-987.96"/>
<text text-anchor="start" x="1060.56" y="-1002.6" font-family="Arial" font-size="10.00">FOREIGN KEY (owner_user_id) REFERENCES users(id)</text>
</g>
<!-- public.oauth_accounts -->
<g id="node5" class="node">
<title>public.oauth_accounts</title>
<polygon fill="#efefef" stroke="none" points="1157.11,-931 1157.11,-966.6 1457.06,-966.6 1457.06,-931 1157.11,-931"/>
<polygon fill="none" stroke="black" points="1157.11,-931 1157.11,-966.6 1457.06,-966.6 1457.06,-931 1157.11,-931"/>
<text text-anchor="start" x="1164.11" y="-944.4" font-family="Arial Bold" font-size="18.00">public.oauth_accounts</text>
<text text-anchor="start" x="1325.57" y="-944.4" font-family="Arial" font-size="14.00">    </text>
<text text-anchor="start" x="1356.69" y="-944.4" font-family="Arial" font-size="14.00" fill="#666666">[BASE TABLE]</text>
<polygon fill="none" stroke="black" points="1157.11,-900.2 1157.11,-931 1457.06,-931 1457.06,-900.2 1157.11,-900.2"/>
<text text-anchor="start" x="1164.11" y="-912.4" font-family="Arial" font-size="14.00">id </text>
<text text-anchor="start" x="1178.9" y="-912.4" font-family="Arial" font-size="14.00" fill="#666666">[uuid]</text>
<polygon fill="none" stroke="black" points="1157.11,-869.4 1157.11,-900.2 1457.06,-900.2 1457.06,-869.4 1157.11,-869.4"/>
<text text-anchor="start" x="1164.11" y="-881.6" font-family="Arial" font-size="14.00">user_id </text>
<text text-anchor="start" x="1213.92" y="-881.6" font-family="Arial" font-size="14.00" fill="#666666">[uuid]</text>
<polygon fill="none" stroke="black" points="1157.11,-838.6 1157.11,-869.4 1457.06,-869.4 1457.06,-838.6 1157.11,-838.6"/>
<text text-anchor="start" x="1164.11" y="-850.8" font-family="Arial" font-size="14.00">provider </text>
<text text-anchor="start" x="1218.58" y="-850.8" font-family="Arial" font-size="14.00" fill="#666666">[varchar(30)]</text>
<polygon fill="none" stroke="black" points="1157.11,-807.8 1157.11,-838.6 1457.06,-838.6 1457.06,-807.8 1157.11,-807.8"/>
<text text-anchor="start" x="1164.11" y="-820" font-family="Arial" font-size="14.00">provider_account_id </text>
<text text-anchor="start" x="1294.09" y="-820" font-family="Arial" font-size="14.00" fill="#666666">[varchar(255)]</text>
<polygon fill="none" stroke="black" points="1157.11,-777 1157.11,-807.8 1457.06,-807.8 1457.06,-777 1157.11,-777"/>
<text text-anchor="start" x="1164.11" y="-789.2" font-family="Arial" font-size="14.00">provider_email </text>
<text text-anchor="start" x="1259.82" y="-789.2" font-family="Arial" font-size="14.00" fill="#666666">[citext]</text>
<polygon fill="none" stroke="black" points="1157.11,-746.2 1157.11,-777 1457.06,-777 1457.06,-746.2 1157.11,-746.2"/>
<text text-anchor="start" x="1164.11" y="-758.4" font-family="Arial" font-size="14.00">created_at </text>
<text text-anchor="start" x="1234.16" y="-758.4" font-family="Arial" font-size="14.00" fill="#666666">[timestamp with time zone]</text>
</g>
<!-- public.oauth_accounts&#45;&gt;public.users -->
<g id="edge6" class="edge">
<title>public.oauth_accounts:user_id&#45;&gt;public.users:id</title>
<path fill="none" stroke="black" d="M1145.92,-882.69C1094.27,-859.64 1122.06,-654.46 1105.09,-595.2 1087.51,-533.83 1115.2,-462 1051.37,-462"/>
<polygon fill="black" stroke="black" points="1145.99,-882.7 1154.87,-889.14 1151.22,-883.79 1155.46,-884.66 1155.46,-884.66 1155.46,-884.66 1151.22,-883.79 1156.7,-880.33 1145.99,-882.7"/>
<text text-anchor="start" x="1103.77" y="-868.8" font-family="Arial" font-size="10.00">FOREIGN KEY (user_id) REFERENCES users(id)</text>
</g>
<!-- public.sessions -->
<g id="node6" class="node">
<title>public.sessions</title>
<polygon fill="#efefef" stroke="none" points="1561.58,-946.4 1561.58,-982 1824.59,-982 1824.59,-946.4 1561.58,-946.4"/>
<polygon fill="none" stroke="black" points="1561.58,-946.4 1561.58,-982 1824.59,-982 1824.59,-946.4 1561.58,-946.4"/>
<text text-anchor="start" x="1576.59" y="-959.8" font-family="Arial Bold" font-size="18.00">public.sessions</text>
<text text-anchor="start" x="1685.09" y="-959.8" font-family="Arial" font-size="14.00">    </text>
<text text-anchor="start" x="1716.21" y="-959.8" font-family="Arial" font-size="14.00" fill="#666666">[BASE TABLE]</text>
<polygon fill="none" stroke="black" points="1561.58,-915.6 1561.58,-946.4 1824.59,-946.4 1824.59,-915.6 1561.58,-915.6"/>
<text text-anchor="start" x="1568.58" y="-927.8" font-family="Arial" font-size="14.00">id </text>
<text text-anchor="start" x="1583.37" y="-927.8" font-family="Arial" font-size="14.00" fill="#666666">[uuid]</text>
<polygon fill="none" stroke="black" points="1561.58,-884.8 1561.58,-915.6 1824.59,-915.6 1824.59,-884.8 1561.58,-884.8"/>
<text text-anchor="start" x="1568.58" y="-897" font-family="Arial" font-size="14.00">user_id </text>
<text text-anchor="start" x="1618.39" y="-897" font-family="Arial" font-size="14.00" fill="#666666">[uuid]</text>
<polygon fill="none" stroke="black" points="1561.58,-854 1561.58,-884.8 1824.59,-884.8 1824.59,-854 1561.58,-854"/>
<text text-anchor="start" x="1568.58" y="-866.2" font-family="Arial" font-size="14.00">token_hash </text>
<text text-anchor="start" x="1644.87" y="-866.2" font-family="Arial" font-size="14.00" fill="#666666">[text]</text>
<polygon fill="none" stroke="black" points="1561.58,-823.2 1561.58,-854 1824.59,-854 1824.59,-823.2 1561.58,-823.2"/>
<text text-anchor="start" x="1568.58" y="-835.4" font-family="Arial" font-size="14.00">expires_at </text>
<text text-anchor="start" x="1637.07" y="-835.4" font-family="Arial" font-size="14.00" fill="#666666">[timestamp with time zone]</text>
<polygon fill="none" stroke="black" points="1561.58,-792.4 1561.58,-823.2 1824.59,-823.2 1824.59,-792.4 1561.58,-792.4"/>
<text text-anchor="start" x="1568.58" y="-804.6" font-family="Arial" font-size="14.00">last_seen_at </text>
<text text-anchor="start" x="1651.87" y="-804.6" font-family="Arial" font-size="14.00" fill="#666666">[timestamp with time zone]</text>
<polygon fill="none" stroke="black" points="1561.58,-761.6 1561.58,-792.4 1824.59,-792.4 1824.59,-761.6 1561.58,-761.6"/>
<text text-anchor="start" x="1568.58" y="-773.8" font-family="Arial" font-size="14.00">revoked_at </text>
<text text-anchor="start" x="1641.74" y="-773.8" font-family="Arial" font-size="14.00" fill="#666666">[timestamp with time zone]</text>
<polygon fill="none" stroke="black" points="1561.58,-730.8 1561.58,-761.6 1824.59,-761.6 1824.59,-730.8 1561.58,-730.8"/>
<text text-anchor="start" x="1568.58" y="-743" font-family="Arial" font-size="14.00">created_at </text>
<text text-anchor="start" x="1638.63" y="-743" font-family="Arial" font-size="14.00" fill="#666666">[timestamp with time zone]</text>
</g>
<!-- public.sessions&#45;&gt;public.users -->
<g id="edge7" class="edge">
<title>public.sessions:user_id&#45;&gt;public.users:id</title>
<path fill="none" stroke="black" d="M1550.45,-898C1498.41,-873.06 1552.29,-643.73 1509.09,-595.2 1438.64,-516.08 1157.3,-462 1051.37,-462"/>
<polygon fill="black" stroke="black" points="1550.48,-898.01 1559.3,-904.53 1555.7,-899.14 1559.93,-900.06 1559.93,-900.06 1559.93,-900.06 1555.7,-899.14 1561.21,-895.73 1550.48,-898.01"/>
<text text-anchor="start" x="1508.24" y="-884.2" font-family="Arial" font-size="10.00">FOREIGN KEY (user_id) REFERENCES users(id)</text>
</g>
<!-- public.match_participants -->
<g id="node7" class="node">
<title>public.match_participants</title>
<polygon fill="#efefef" stroke="none" points="1928.62,-961.8 1928.62,-997.4 2253.55,-997.4 2253.55,-961.8 1928.62,-961.8"/>
<polygon fill="none" stroke="black" points="1928.62,-961.8 1928.62,-997.4 2253.55,-997.4 2253.55,-961.8 1928.62,-961.8"/>
<text text-anchor="start" x="1935.62" y="-975.2" font-family="Arial Bold" font-size="18.00">public.match_participants</text>
<text text-anchor="start" x="2122.06" y="-975.2" font-family="Arial" font-size="14.00">    </text>
<text text-anchor="start" x="2153.18" y="-975.2" font-family="Arial" font-size="14.00" fill="#666666">[BASE TABLE]</text>
<polygon fill="none" stroke="black" points="1928.62,-931 1928.62,-961.8 2253.55,-961.8 2253.55,-931 1928.62,-931"/>
<text text-anchor="start" x="1935.62" y="-943.2" font-family="Arial" font-size="14.00">match_id </text>
<text text-anchor="start" x="1996.32" y="-943.2" font-family="Arial" font-size="14.00" fill="#666666">[uuid]</text>
<polygon fill="none" stroke="black" points="1928.62,-900.2 1928.62,-931 2253.55,-931 2253.55,-900.2 1928.62,-900.2"/>
<text text-anchor="start" x="1935.62" y="-912.4" font-family="Arial" font-size="14.00">user_id </text>
<text text-anchor="start" x="1985.43" y="-912.4" font-family="Arial" font-size="14.00" fill="#666666">[uuid]</text>
<polygon fill="none" stroke="black" points="1928.62,-869.4 1928.62,-900.2 2253.55,-900.2 2253.55,-869.4 1928.62,-869.4"/>
<text text-anchor="start" x="1935.62" y="-881.6" font-family="Arial" font-size="14.00">seat </text>
<text text-anchor="start" x="1965.97" y="-881.6" font-family="Arial" font-size="14.00" fill="#666666">[smallint]</text>
<polygon fill="none" stroke="black" points="1928.62,-838.6 1928.62,-869.4 2253.55,-869.4 2253.55,-838.6 1928.62,-838.6"/>
<text text-anchor="start" x="1935.62" y="-850.8" font-family="Arial" font-size="14.00">outcome </text>
<text text-anchor="start" x="1993.21" y="-850.8" font-family="Arial" font-size="14.00" fill="#666666">[varchar(10)]</text>
<polygon fill="none" stroke="black" points="1928.62,-807.8 1928.62,-838.6 2253.55,-838.6 2253.55,-807.8 1928.62,-807.8"/>
<text text-anchor="start" x="1935.62" y="-820" font-family="Arial" font-size="14.00">rating_before </text>
<text text-anchor="start" x="2022.01" y="-820" font-family="Arial" font-size="14.00" fill="#666666">[integer]</text>
<polygon fill="none" stroke="black" points="1928.62,-777 1928.62,-807.8 2253.55,-807.8 2253.55,-777 1928.62,-777"/>
<text text-anchor="start" x="1935.62" y="-789.2" font-family="Arial" font-size="14.00">rating_after </text>
<text text-anchor="start" x="2010.33" y="-789.2" font-family="Arial" font-size="14.00" fill="#666666">[integer]</text>
<polygon fill="none" stroke="black" points="1928.62,-746.2 1928.62,-777 2253.55,-777 2253.55,-746.2 1928.62,-746.2"/>
<text text-anchor="start" x="1935.62" y="-758.4" font-family="Arial" font-size="14.00">xp_gained </text>
<text text-anchor="start" x="2004.12" y="-758.4" font-family="Arial" font-size="14.00" fill="#666666">[integer]</text>
<polygon fill="none" stroke="black" points="1928.62,-715.4 1928.62,-746.2 2253.55,-746.2 2253.55,-715.4 1928.62,-715.4"/>
<text text-anchor="start" x="1935.62" y="-727.6" font-family="Arial" font-size="14.00">created_at </text>
<text text-anchor="start" x="2005.67" y="-727.6" font-family="Arial" font-size="14.00" fill="#666666">[timestamp with time zone]</text>
</g>
<!-- public.match_participants&#45;&gt;public.users -->
<g id="edge8" class="edge">
<title>public.match_participants:user_id&#45;&gt;public.users:id</title>
<path fill="none" stroke="black" d="M1917.72,-913.58C1862.58,-888.81 1925.38,-643.66 1877.09,-595.2 1745.89,-463.54 1237.23,-462 1051.37,-462"/>
<polygon fill="black" stroke="black" points="1917.49,-913.53 1926.39,-919.94 1922.72,-914.6 1926.96,-915.47 1926.96,-915.47 1926.96,-915.47 1922.72,-914.6 1928.19,-911.12 1917.49,-913.53"/>
<text text-anchor="start" x="1697.24" y="-925.6" font-family="Arial" font-size="10.00">FOREIGN KEY (user_id) REFERENCES users(id)</text>
</g>
<!-- public.user_achievements -->
<g id="node8" class="node">
<title>public.user_achievements</title>
<polygon fill="#efefef" stroke="none" points="2357.62,-884.8 2357.62,-920.4 2682.55,-920.4 2682.55,-884.8 2357.62,-884.8"/>
<polygon fill="none" stroke="black" points="2357.62,-884.8 2357.62,-920.4 2682.55,-920.4 2682.55,-884.8 2357.62,-884.8"/>
<text text-anchor="start" x="2364.62" y="-898.2" font-family="Arial Bold" font-size="18.00">public.user_achievements</text>
<text text-anchor="start" x="2551.06" y="-898.2" font-family="Arial" font-size="14.00">    </text>
<text text-anchor="start" x="2582.18" y="-898.2" font-family="Arial" font-size="14.00" fill="#666666">[BASE TABLE]</text>
<polygon fill="none" stroke="black" points="2357.62,-854 2357.62,-884.8 2682.55,-884.8 2682.55,-854 2357.62,-854"/>
<text text-anchor="start" x="2364.62" y="-866.2" font-family="Arial" font-size="14.00">user_id </text>
<text text-anchor="start" x="2414.43" y="-866.2" font-family="Arial" font-size="14.00" fill="#666666">[uuid]</text>
<polygon fill="none" stroke="black" points="2357.62,-823.2 2357.62,-854 2682.55,-854 2682.55,-823.2 2357.62,-823.2"/>
<text text-anchor="start" x="2364.62" y="-835.4" font-family="Arial" font-size="14.00">code </text>
<text text-anchor="start" x="2398.87" y="-835.4" font-family="Arial" font-size="14.00" fill="#666666">[varchar(50)]</text>
<polygon fill="none" stroke="black" points="2357.62,-792.4 2357.62,-823.2 2682.55,-823.2 2682.55,-792.4 2357.62,-792.4"/>
<text text-anchor="start" x="2364.62" y="-804.6" font-family="Arial" font-size="14.00">unlocked_at </text>
<text text-anchor="start" x="2444.02" y="-804.6" font-family="Arial" font-size="14.00" fill="#666666">[timestamp with time zone]</text>
</g>
<!-- public.user_achievements&#45;&gt;public.users -->
<g id="edge9" class="edge">
<title>public.user_achievements:user_id&#45;&gt;public.users:id</title>
<path fill="none" stroke="black" d="M2346.46,-868.92C2242.11,-858.36 2394.33,-676.94 2306.09,-595.2 2203.23,-499.93 1191.56,-462 1051.37,-462"/>
<polygon fill="black" stroke="black" points="2346.3,-868.91 2356.08,-873.88 2351.63,-869.16 2355.96,-869.37 2355.96,-869.37 2355.96,-869.37 2351.63,-869.16 2356.5,-864.89 2346.3,-868.91"/>
<text text-anchor="start" x="2304.28" y="-853.4" font-family="Arial" font-size="10.00">FOREIGN KEY (user_id) REFERENCES users(id)</text>
</g>
</g>
</svg>
