<?xml version="1.0" encoding="UTF-8" standalone="no"?>
<!DOCTYPE svg PUBLIC "-//W3C//DTD SVG 1.1//EN"
 "http://www.w3.org/Graphics/SVG/1.1/DTD/svg11.dtd">
<!-- Generated by graphviz version 12.1.2 (20240928.0832)
 -->
<!-- Title: public.friendships Pages: 1 -->
<svg width="587pt" height="910pt"
 viewBox="0.00 0.00 587.31 910.00" xmlns="http://www.w3.org/2000/svg" xmlns:xlink="http://www.w3.org/1999/xlink">
<g id="graph0" class="graph" transform="scale(1 1) rotate(0) translate(4 906)">
<title>public.friendships</title>
<polygon fill="white" stroke="none" points="-4,4 -4,-906 583.31,-906 583.31,4 -4,4"/>
<!-- public.friendships -->
<g id="node1" class="node">
<title>public.friendships</title>
<polygon fill="#efefef" stroke="none" points="48.5,-820.2 48.5,-855.8 316.47,-855.8 316.47,-820.2 48.5,-820.2"/>
<polygon fill="none" stroke="black" points="48.5,-820.2 48.5,-855.8 316.47,-855.8 316.47,-820.2 48.5,-820.2"/>
<text text-anchor="start" x="55.5" y="-833.6" font-family="Arial Bold" font-size="18.00">public.friendships</text>
<text text-anchor="start" x="184.98" y="-833.6" font-family="Arial" font-size="14.00">    </text>
<text text-anchor="start" x="216.1" y="-833.6" font-family="Arial" font-size="14.00" fill="#666666">[BASE TABLE]</text>
<polygon fill="none" stroke="black" points="48.5,-789.4 48.5,-820.2 316.47,-820.2 316.47,-789.4 48.5,-789.4"/>
<text text-anchor="start" x="55.5" y="-801.6" font-family="Arial" font-size="14.00">user_low_id </text>
<text text-anchor="start" x="134.1" y="-801.6" font-family="Arial" font-size="14.00" fill="#666666">[uuid]</text>
<polygon fill="none" stroke="black" points="48.5,-758.6 48.5,-789.4 316.47,-789.4 316.47,-758.6 48.5,-758.6"/>
<text text-anchor="start" x="55.5" y="-770.8" font-family="Arial" font-size="14.00">user_high_id </text>
<text text-anchor="start" x="139.56" y="-770.8" font-family="Arial" font-size="14.00" fill="#666666">[uuid]</text>
<polygon fill="none" stroke="black" points="48.5,-727.8 48.5,-758.6 316.47,-758.6 316.47,-727.8 48.5,-727.8"/>
<text text-anchor="start" x="55.5" y="-740" font-family="Arial" font-size="14.00">requested_by_user_id </text>
<text text-anchor="start" x="197.93" y="-740" font-family="Arial" font-size="14.00" fill="#666666">[uuid]</text>
<polygon fill="none" stroke="black" points="48.5,-697 48.5,-727.8 316.47,-727.8 316.47,-697 48.5,-697"/>
<text text-anchor="start" x="55.5" y="-709.2" font-family="Arial" font-size="14.00">status </text>
<text text-anchor="start" x="96.74" y="-709.2" font-family="Arial" font-size="14.00" fill="#666666">[varchar(20)]</text>
<polygon fill="none" stroke="black" points="48.5,-666.2 48.5,-697 316.47,-697 316.47,-666.2 48.5,-666.2"/>
<text text-anchor="start" x="55.5" y="-678.4" font-family="Arial" font-size="14.00">created_at </text>
<text text-anchor="start" x="125.55" y="-678.4" font-family="Arial" font-size="14.00" fill="#666666">[timestamp with time zone]</text>
<polygon fill="none" stroke="black" points="48.5,-635.4 48.5,-666.2 316.47,-666.2 316.47,-635.4 48.5,-635.4"/>
<text text-anchor="start" x="55.5" y="-647.6" font-family="Arial" font-size="14.00">updated_at </text>
<text text-anchor="start" x="129.46" y="-647.6" font-family="Arial" font-size="14.00" fill="#666666">[timestamp with time zone]</text>
<polygon fill="none" stroke="black" stroke-width="3" points="47,-633.9 47,-857.3 317.97,-857.3 317.97,-633.9 47,-633.9"/>
</g>
<!-- public.users -->
<g id="node2" class="node">
<title>public.users</title>
<polygon fill="#efefef" stroke="none" points="43.2,-474.4 43.2,-510 321.76,-510 321.76,-474.4 43.2,-474.4"/>
<polygon fill="none" stroke="black" points="43.2,-474.4 43.2,-510 321.76,-510 321.76,-474.4 43.2,-474.4"/>
<text text-anchor="start" x="77" y="-487.8" font-family="Arial Bold" font-size="18.00">public.users</text>
<text text-anchor="start" x="163.48" y="-487.8" font-family="Arial" font-size="14.00">    </text>
<text text-anchor="start" x="194.6" y="-487.8" font-family="Arial" font-size="14.00" fill="#666666">[BASE TABLE]</text>
<polygon fill="none" stroke="black" points="43.2,-443.6 43.2,-474.4 321.76,-474.4 321.76,-443.6 43.2,-443.6"/>
<text text-anchor="start" x="50.2" y="-455.8" font-family="Arial" font-size="14.00">id </text>
<text text-anchor="start" x="64.99" y="-455.8" font-family="Arial" font-size="14.00" fill="#666666">[uuid]</text>
<polygon fill="none" stroke="black" points="43.2,-412.8 43.2,-443.6 321.76,-443.6 321.76,-412.8 43.2,-412.8"/>
<text text-anchor="start" x="50.2" y="-425" font-family="Arial" font-size="14.00">email </text>
<text text-anchor="start" x="87.54" y="-425" font-family="Arial" font-size="14.00" fill="#666666">[citext]</text>
<polygon fill="none" stroke="black" points="43.2,-382 43.2,-412.8 321.76,-412.8 321.76,-382 43.2,-382"/>
<text text-anchor="start" x="50.2" y="-394.2" font-family="Arial" font-size="14.00">password_hash </text>
<text text-anchor="start" x="152.15" y="-394.2" font-family="Arial" font-size="14.00" fill="#666666">[text]</text>
<polygon fill="none" stroke="black" points="43.2,-351.2 43.2,-382 321.76,-382 321.76,-351.2 43.2,-351.2"/>
<text text-anchor="start" x="50.2" y="-363.4" font-family="Arial" font-size="14.00">display_name </text>
<text text-anchor="start" x="140.48" y="-363.4" font-family="Arial" font-size="14.00" fill="#666666">[varchar(50)]</text>
<polygon fill="none" stroke="black" points="43.2,-320.4 43.2,-351.2 321.76,-351.2 321.76,-320.4 43.2,-320.4"/>
<text text-anchor="start" x="50.2" y="-332.6" font-family="Arial" font-size="14.00">handle </text>
<text text-anchor="start" x="96.13" y="-332.6" font-family="Arial" font-size="14.00" fill="#666666">[varchar(30)]</text>
<polygon fill="none" stroke="black" points="43.2,-289.6 43.2,-320.4 321.76,-320.4 321.76,-289.6 43.2,-289.6"/>
<text text-anchor="start" x="50.2" y="-301.8" font-family="Arial" font-size="14.00">avatar_asset_id </text>
<text text-anchor="start" x="152.93" y="-301.8" font-family="Arial" font-size="14.00" fill="#666666">[uuid]</text>
<polygon fill="none" stroke="black" points="43.2,-258.8 43.2,-289.6 321.76,-289.6 321.76,-258.8 43.2,-258.8"/>
<text text-anchor="start" x="50.2" y="-271" font-family="Arial" font-size="14.00">preferred_locale </text>
<text text-anchor="start" x="155.26" y="-271" font-family="Arial" font-size="14.00" fill="#666666">[varchar(10)]</text>
<polygon fill="none" stroke="black" points="43.2,-228 43.2,-258.8 321.76,-258.8 321.76,-228 43.2,-228"/>
<text text-anchor="start" x="50.2" y="-240.2" font-family="Arial" font-size="14.00">status </text>
<text text-anchor="start" x="91.44" y="-240.2" font-family="Arial" font-size="14.00" fill="#666666">[varchar(20)]</text>
<polygon fill="none" stroke="black" points="43.2,-197.2 43.2,-228 321.76,-228 321.76,-197.2 43.2,-197.2"/>
<text text-anchor="start" x="50.2" y="-209.4" font-family="Arial" font-size="14.00">level </text>
<text text-anchor="start" x="82.88" y="-209.4" font-family="Arial" font-size="14.00" fill="#666666">[integer]</text>
<polygon fill="none" stroke="black" points="43.2,-166.4 43.2,-197.2 321.76,-197.2 321.76,-166.4 43.2,-166.4"/>
<text text-anchor="start" x="50.2" y="-178.6" font-family="Arial" font-size="14.00">experience_points </text>
<text text-anchor="start" x="167.72" y="-178.6" font-family="Arial" font-size="14.00" fill="#666666">[integer]</text>
<polygon fill="none" stroke="black" points="43.2,-135.6 43.2,-166.4 321.76,-166.4 321.76,-135.6 43.2,-135.6"/>
<text text-anchor="start" x="50.2" y="-147.8" font-family="Arial" font-size="14.00">created_at </text>
<text text-anchor="start" x="120.25" y="-147.8" font-family="Arial" font-size="14.00" fill="#666666">[timestamp with time zone]</text>
<polygon fill="none" stroke="black" points="43.2,-104.8 43.2,-135.6 321.76,-135.6 321.76,-104.8 43.2,-104.8"/>
<text text-anchor="start" x="50.2" y="-117" font-family="Arial" font-size="14.00">updated_at </text>
<text text-anchor="start" x="124.16" y="-117" font-family="Arial" font-size="14.00" fill="#666666">[timestamp with time zone]</text>
<polygon fill="none" stroke="black" points="43.2,-74 43.2,-104.8 321.76,-104.8 321.76,-74 43.2,-74"/>
<text text-anchor="start" x="50.2" y="-86.2" font-family="Arial" font-size="14.00">anonymized_at </text>
<text text-anchor="start" x="149.04" y="-86.2" font-family="Arial" font-size="14.00" fill="#666666">[timestamp with time zone]</text>
<polygon fill="none" stroke="black" points="43.2,-43.2 43.2,-74 321.76,-74 321.76,-43.2 43.2,-43.2"/>
<text text-anchor="start" x="50.2" y="-55.4" font-family="Arial" font-size="14.00">rating </text>
<text text-anchor="start" x="89.11" y="-55.4" font-family="Arial" font-size="14.00" fill="#666666">[integer]</text>
</g>
<!-- public.friendships&#45;&gt;public.users -->
<g id="edge1" class="edge">
<title>public.friendships:user_low_id&#45;&gt;public.users:id</title>
<path fill="none" stroke="black" d="M327.39,-802.77C394.63,-774.43 396.17,-459 322.76,-459"/>
<polygon fill="black" stroke="black" points="327.59,-802.73 316.89,-800.32 322.37,-803.8 318.12,-804.67 318.12,-804.67 318.12,-804.67 322.37,-803.8 318.7,-809.14 327.59,-802.73"/>
<text text-anchor="start" x="324.47" y="-814.8" font-family="Arial" font-size="10.00">FOREIGN KEY (user_low_id) REFERENCES users(id)</text>
</g>
<!-- public.friendships&#45;&gt;public.users -->
<g id="edge2" class="edge">
<title>public.friendships:user_high_id&#45;&gt;public.users:id</title>
<path fill="none" stroke="black" d="M327.63,-771.65C387.82,-742.82 389.22,-459 322.76,-459"/>
<polygon fill="black" stroke="black" points="327.53,-771.67 316.78,-769.54 322.34,-772.87 318.12,-773.85 318.12,-773.85 318.12,-773.85 322.34,-772.87 318.81,-778.31 327.53,-771.67"/>
<text text-anchor="start" x="324.47" y="-784" font-family="Arial" font-size="10.00">FOREIGN KEY (user_high_id) REFERENCES users(id)</text>
</g>
</g>
</svg>
