<?xml version="1.0" encoding="UTF-8" standalone="no"?>
<!DOCTYPE svg PUBLIC "-//W3C//DTD SVG 1.1//EN"
 "http://www.w3.org/Graphics/SVG/1.1/DTD/svg11.dtd">
<!-- Generated by graphviz version 12.1.2 (20240928.0832)
 -->
<!-- Title: public.blocks Pages: 1 -->
<svg width="594pt" height="818pt"
 viewBox="0.00 0.00 593.78 817.60" xmlns="http://www.w3.org/2000/svg" xmlns:xlink="http://www.w3.org/1999/xlink">
<g id="graph0" class="graph" transform="scale(1 1) rotate(0) translate(4 813.6)">
<title>public.blocks</title>
<polygon fill="white" stroke="none" points="-4,4 -4,-813.6 589.78,-813.6 589.78,4 -4,4"/>
<!-- public.blocks -->
<g id="node1" class="node">
<title>public.blocks</title>
<polygon fill="#efefef" stroke="none" points="57.6,-727.8 57.6,-763.4 307.37,-763.4 307.37,-727.8 57.6,-727.8"/>
<polygon fill="none" stroke="black" points="57.6,-727.8 57.6,-763.4 307.37,-763.4 307.37,-727.8 57.6,-727.8"/>
<text text-anchor="start" x="71.99" y="-741.2" font-family="Arial Bold" font-size="18.00">public.blocks</text>
<text text-anchor="start" x="168.48" y="-741.2" font-family="Arial" font-size="14.00">    </text>
<text text-anchor="start" x="199.6" y="-741.2" font-family="Arial" font-size="14.00" fill="#666666">[BASE TABLE]</text>
<polygon fill="none" stroke="black" points="57.6,-697 57.6,-727.8 307.37,-727.8 307.37,-697 57.6,-697"/>
<text text-anchor="start" x="64.6" y="-709.2" font-family="Arial" font-size="14.00">id </text>
<text text-anchor="start" x="79.38" y="-709.2" font-family="Arial" font-size="14.00" fill="#666666">[uuid]</text>
<polygon fill="none" stroke="black" points="57.6,-666.2 57.6,-697 307.37,-697 307.37,-666.2 57.6,-666.2"/>
<text text-anchor="start" x="64.6" y="-678.4" font-family="Arial" font-size="14.00">blocker_user_id </text>
<text text-anchor="start" x="167.32" y="-678.4" font-family="Arial" font-size="14.00" fill="#666666">[uuid]</text>
<polygon fill="none" stroke="black" points="57.6,-635.4 57.6,-666.2 307.37,-666.2 307.37,-635.4 57.6,-635.4"/>
<text text-anchor="start" x="64.6" y="-647.6" font-family="Arial" font-size="14.00">blocked_user_id </text>
<text text-anchor="start" x="170.44" y="-647.6" font-family="Arial" font-size="14.00" fill="#666666">[uuid]</text>
<polygon fill="none" stroke="black" points="57.6,-604.6 57.6,-635.4 307.37,-635.4 307.37,-604.6 57.6,-604.6"/>
<text text-anchor="start" x="64.6" y="-616.8" font-family="Arial" font-size="14.00">created_at </text>
<text text-anchor="start" x="134.64" y="-616.8" font-family="Arial" font-size="14.00" fill="#666666">[timestamp with time zone]</text>
<polygon fill="none" stroke="black" stroke-width="3" points="56.1,-603.1 56.1,-764.9 308.87,-764.9 308.87,-603.1 56.1,-603.1"/>
</g>
<!-- public.users -->
<g id="node2" class="node">
<title>public.users</title>
<polygon fill="#efefef" stroke="none" points="43.2,-443.6 43.2,-479.2 321.76,-479.2 321.76,-443.6 43.2,-443.6"/>
<polygon fill="none" stroke="black" points="43.2,-443.6 43.2,-479.2 321.76,-479.2 321.76,-443.6 43.2,-443.6"/>
<text text-anchor="start" x="77" y="-457" font-family="Arial Bold" font-size="18.00">public.users</text>
<text text-anchor="start" x="163.48" y="-457" font-family="Arial" font-size="14.00">    </text>
<text text-anchor="start" x="194.6" y="-457" font-family="Arial" font-size="14.00" fill="#666666">[BASE TABLE]</text>
<polygon fill="none" stroke="black" points="43.2,-412.8 43.2,-443.6 321.76,-443.6 321.76,-412.8 43.2,-412.8"/>
<text text-anchor="start" x="50.2" y="-425" font-family="Arial" font-size="14.00">id </text>
<text text-anchor="start" x="64.99" y="-425" font-family="Arial" font-size="14.00" fill="#666666">[uuid]</text>
<polygon fill="none" stroke="black" points="43.2,-382 43.2,-412.8 321.76,-412.8 321.76,-382 43.2,-382"/>
<text text-anchor="start" x="50.2" y="-394.2" font-family="Arial" font-size="14.00">email </text>
<text text-anchor="start" x="87.54" y="-394.2" font-family="Arial" font-size="14.00" fill="#666666">[citext]</text>
<polygon fill="none" stroke="black" points="43.2,-351.2 43.2,-382 321.76,-382 321.76,-351.2 43.2,-351.2"/>
<text text-anchor="start" x="50.2" y="-363.4" font-family="Arial" font-size="14.00">password_hash </text>
<text text-anchor="start" x="152.15" y="-363.4" font-family="Arial" font-size="14.00" fill="#666666">[text]</text>
<polygon fill="none" stroke="black" points="43.2,-320.4 43.2,-351.2 321.76,-351.2 321.76,-320.4 43.2,-320.4"/>
<text text-anchor="start" x="50.2" y="-332.6" font-family="Arial" font-size="14.00">display_name </text>
<text text-anchor="start" x="140.48" y="-332.6" font-family="Arial" font-size="14.00" fill="#666666">[varchar(50)]</text>
<polygon fill="none" stroke="black" points="43.2,-289.6 43.2,-320.4 321.76,-320.4 321.76,-289.6 43.2,-289.6"/>
<text text-anchor="start" x="50.2" y="-301.8" font-family="Arial" font-size="14.00">handle </text>
<text text-anchor="start" x="96.13" y="-301.8" font-family="Arial" font-size="14.00" fill="#666666">[varchar(30)]</text>
<polygon fill="none" stroke="black" points="43.2,-258.8 43.2,-289.6 321.76,-289.6 321.76,-258.8 43.2,-258.8"/>
<text text-anchor="start" x="50.2" y="-271" font-family="Arial" font-size="14.00">avatar_asset_id </text>
<text text-anchor="start" x="152.93" y="-271" font-family="Arial" font-size="14.00" fill="#666666">[uuid]</text>
<polygon fill="none" stroke="black" points="43.2,-228 43.2,-258.8 321.76,-258.8 321.76,-228 43.2,-228"/>
<text text-anchor="start" x="50.2" y="-240.2" font-family="Arial" font-size="14.00">preferred_locale </text>
<text text-anchor="start" x="155.26" y="-240.2" font-family="Arial" font-size="14.00" fill="#666666">[varchar(10)]</text>
<polygon fill="none" stroke="black" points="43.2,-197.2 43.2,-228 321.76,-228 321.76,-197.2 43.2,-197.2"/>
<text text-anchor="start" x="50.2" y="-209.4" font-family="Arial" font-size="14.00">status </text>
<text text-anchor="start" x="91.44" y="-209.4" font-family="Arial" font-size="14.00" fill="#666666">[varchar(20)]</text>
<polygon fill="none" stroke="black" points="43.2,-166.4 43.2,-197.2 321.76,-197.2 321.76,-166.4 43.2,-166.4"/>
<text text-anchor="start" x="50.2" y="-178.6" font-family="Arial" font-size="14.00">level </text>
<text text-anchor="start" x="82.88" y="-178.6" font-family="Arial" font-size="14.00" fill="#666666">[integer]</text>
<polygon fill="none" stroke="black" points="43.2,-135.6 43.2,-166.4 321.76,-166.4 321.76,-135.6 43.2,-135.6"/>
<text text-anchor="start" x="50.2" y="-147.8" font-family="Arial" font-size="14.00">experience_points </text>
<text text-anchor="start" x="167.72" y="-147.8" font-family="Arial" font-size="14.00" fill="#666666">[integer]</text>
<polygon fill="none" stroke="black" points="43.2,-104.8 43.2,-135.6 321.76,-135.6 321.76,-104.8 43.2,-104.8"/>
<text text-anchor="start" x="50.2" y="-117" font-family="Arial" font-size="14.00">created_at </text>
<text text-anchor="start" x="120.25" y="-117" font-family="Arial" font-size="14.00" fill="#666666">[timestamp with time zone]</text>
<polygon fill="none" stroke="black" points="43.2,-74 43.2,-104.8 321.76,-104.8 321.76,-74 43.2,-74"/>
<text text-anchor="start" x="50.2" y="-86.2" font-family="Arial" font-size="14.00">updated_at </text>
<text text-anchor="start" x="124.16" y="-86.2" font-family="Arial" font-size="14.00" fill="#666666">[timestamp with time zone]</text>
<polygon fill="none" stroke="black" points="43.2,-43.2 43.2,-74 321.76,-74 321.76,-43.2 43.2,-43.2"/>
<text text-anchor="start" x="50.2" y="-55.4" font-family="Arial" font-size="14.00">anonymized_at </text>
<text text-anchor="start" x="149.04" y="-55.4" font-family="Arial" font-size="14.00" fill="#666666">[timestamp with time zone]</text>
</g>
<!-- public.blocks&#45;&gt;public.users -->
<g id="edge1" class="edge">
<title>public.blocks:blocker_user_id&#45;&gt;public.users:id</title>
<path fill="none" stroke="black" d="M318.14,-678.93C366.25,-651.84 375.75,-428.2 322.76,-428.2"/>
<polygon fill="black" stroke="black" points="318.34,-678.87 307.5,-677.17 313.19,-680.28 309.01,-681.42 309.01,-681.42 309.01,-681.42 313.19,-680.28 309.88,-685.85 318.34,-678.87"/>
<text text-anchor="start" x="315.37" y="-691.6" font-family="Arial" font-size="10.00">FOREIGN KEY (blocker_user_id) REFERENCES users(id)</text>
</g>
<!-- public.blocks&#45;&gt;public.users -->
<g id="edge2" class="edge">
<title>public.blocks:blocked_user_id&#45;&gt;public.users:id</title>
<path fill="none" stroke="black" d="M318.29,-647.65C359.65,-620.6 368.85,-428.2 322.76,-428.2"/>
<polygon fill="black" stroke="black" points="318.22,-647.68 307.33,-646.41 313.13,-649.29 309.01,-650.6 309.01,-650.6 309.01,-650.6 313.13,-649.29 310.05,-654.99 318.22,-647.68"/>
<text text-anchor="start" x="315.37" y="-660.8" font-family="Arial" font-size="10.00">FOREIGN KEY (blocked_user_id) REFERENCES users(id)</text>
</g>
</g>
</svg>
