<?xml version="1.0" encoding="UTF-8" standalone="no"?>
<!DOCTYPE svg PUBLIC "-//W3C//DTD SVG 1.1//EN"
 "http://www.w3.org/Graphics/SVG/1.1/DTD/svg11.dtd">
<!-- Generated by graphviz version 12.1.2 (20240928.0832)
 -->
<!-- Title: public.matches Pages: 1 -->
<svg width="816pt" height="787pt"
 viewBox="0.00 0.00 815.84 786.80" xmlns="http://www.w3.org/2000/svg" xmlns:xlink="http://www.w3.org/1999/xlink">
<g id="graph0" class="graph" transform="scale(1 1) rotate(0) translate(4 782.8)">
<title>public.matches</title>
<polygon fill="white" stroke="none" points="-4,4 -4,-782.8 811.84,-782.8 811.84,4 -4,4"/>
<!-- public.matches -->
<g id="node1" class="node">
<title>public.matches</title>
<polygon fill="#efefef" stroke="none" points="286,-292.6 286,-328.2 537.33,-328.2 537.33,-292.6 286,-292.6"/>
<polygon fill="none" stroke="black" points="286,-292.6 286,-328.2 537.33,-328.2 537.33,-292.6 286,-292.6"/>
<text text-anchor="start" x="295.19" y="-306" font-family="Arial Bold" font-size="18.00">public.matches</text>
<text text-anchor="start" x="403.65" y="-306" font-family="Arial" font-size="14.00">    </text>
<text text-anchor="start" x="434.77" y="-306" font-family="Arial" font-size="14.00" fill="#666666">[BASE TABLE]</text>
<polygon fill="none" stroke="black" points="286,-261.8 286,-292.6 537.33,-292.6 537.33,-261.8 286,-261.8"/>
<text text-anchor="start" x="293" y="-274" font-family="Arial" font-size="14.00">id </text>
<text text-anchor="start" x="307.79" y="-274" font-family="Arial" font-size="14.00" fill="#666666">[uuid]</text>
<polygon fill="none" stroke="black" points="286,-231 286,-261.8 537.33,-261.8 537.33,-231 286,-231"/>
<text text-anchor="start" x="293" y="-243.2" font-family="Arial" font-size="14.00">mode </text>
<text text-anchor="start" x="331.91" y="-243.2" font-family="Arial" font-size="14.00" fill="#666666">[varchar(20)]</text>
<polygon fill="none" stroke="black" points="286,-200.2 286,-231 537.33,-231 537.33,-200.2 286,-200.2"/>
<text text-anchor="start" x="293" y="-212.4" font-family="Arial" font-size="14.00">status </text>
<text text-anchor="start" x="334.24" y="-212.4" font-family="Arial" font-size="14.00" fill="#666666">[varchar(20)]</text>
<polygon fill="none" stroke="black" points="286,-169.4 286,-200.2 537.33,-200.2 537.33,-169.4 286,-169.4"/>
<text text-anchor="start" x="293" y="-181.6" font-family="Arial" font-size="14.00">result_type </text>
<text text-anchor="start" x="365.37" y="-181.6" font-family="Arial" font-size="14.00" fill="#666666">[varchar(20)]</text>
<polygon fill="none" stroke="black" points="286,-138.6 286,-169.4 537.33,-169.4 537.33,-138.6 286,-138.6"/>
<text text-anchor="start" x="293" y="-150.8" font-family="Arial" font-size="14.00">total_moves </text>
<text text-anchor="start" x="372.37" y="-150.8" font-family="Arial" font-size="14.00" fill="#666666">[integer]</text>
<polygon fill="none" stroke="black" points="286,-107.8 286,-138.6 537.33,-138.6 537.33,-107.8 286,-107.8"/>
<text text-anchor="start" x="293" y="-120" font-family="Arial" font-size="14.00">started_at </text>
<text text-anchor="start" x="359.15" y="-120" font-family="Arial" font-size="14.00" fill="#666666">[timestamp with time zone]</text>
<polygon fill="none" stroke="black" points="286,-77 286,-107.8 537.33,-107.8 537.33,-77 286,-77"/>
<text text-anchor="start" x="293" y="-89.2" font-family="Arial" font-size="14.00">finished_at </text>
<text text-anchor="start" x="364.61" y="-89.2" font-family="Arial" font-size="14.00" fill="#666666">[timestamp with time zone]</text>
<polygon fill="none" stroke="black" points="286,-46.2 286,-77 537.33,-77 537.33,-46.2 286,-46.2"/>
<text text-anchor="start" x="293" y="-58.4" font-family="Arial" font-size="14.00">created_at </text>
<text text-anchor="start" x="363.05" y="-58.4" font-family="Arial" font-size="14.00" fill="#666666">[timestamp with time zone]</text>
<polygon fill="none" stroke="black" stroke-width="3" points="284.5,-44.7 284.5,-329.7 538.83,-329.7 538.83,-44.7 284.5,-44.7"/>
</g>
<!-- public.match_participants -->
<g id="node2" class="node">
<title>public.match_participants</title>
<polygon fill="#efefef" stroke="none" points="43.2,-700 43.2,-735.6 368.13,-735.6 368.13,-700 43.2,-700"/>
<polygon fill="none" stroke="black" points="43.2,-700 43.2,-735.6 368.13,-735.6 368.13,-700 43.2,-700"/>
<text text-anchor="start" x="50.2" y="-713.4" font-family="Arial Bold" font-size="18.00">public.match_participants</text>
<text text-anchor="start" x="236.64" y="-713.4" font-family="Arial" font-size="14.00">    </text>
<text text-anchor="start" x="267.76" y="-713.4" font-family="Arial" font-size="14.00" fill="#666666">[BASE TABLE]</text>
<polygon fill="none" stroke="black" points="43.2,-669.2 43.2,-700 368.13,-700 368.13,-669.2 43.2,-669.2"/>
<text text-anchor="start" x="50.2" y="-681.4" font-family="Arial" font-size="14.00">match_id </text>
<text text-anchor="start" x="110.9" y="-681.4" font-family="Arial" font-size="14.00" fill="#666666">[uuid]</text>
<polygon fill="none" stroke="black" points="43.2,-638.4 43.2,-669.2 368.13,-669.2 368.13,-638.4 43.2,-638.4"/>
<text text-anchor="start" x="50.2" y="-650.6" font-family="Arial" font-size="14.00">user_id </text>
<text text-anchor="start" x="100.01" y="-650.6" font-family="Arial" font-size="14.00" fill="#666666">[uuid]</text>
<polygon fill="none" stroke="black" points="43.2,-607.6 43.2,-638.4 368.13,-638.4 368.13,-607.6 43.2,-607.6"/>
<text text-anchor="start" x="50.2" y="-619.8" font-family="Arial" font-size="14.00">seat </text>
<text text-anchor="start" x="80.55" y="-619.8" font-family="Arial" font-size="14.00" fill="#666666">[smallint]</text>
<polygon fill="none" stroke="black" points="43.2,-576.8 43.2,-607.6 368.13,-607.6 368.13,-576.8 43.2,-576.8"/>
<text text-anchor="start" x="50.2" y="-589" font-family="Arial" font-size="14.00">outcome </text>
<text text-anchor="start" x="107.79" y="-589" font-family="Arial" font-size="14.00" fill="#666666">[varchar(10)]</text>
<polygon fill="none" stroke="black" points="43.2,-546 43.2,-576.8 368.13,-576.8 368.13,-546 43.2,-546"/>
<text text-anchor="start" x="50.2" y="-558.2" font-family="Arial" font-size="14.00">rating_before </text>
<text text-anchor="start" x="136.59" y="-558.2" font-family="Arial" font-size="14.00" fill="#666666">[integer]</text>
<polygon fill="none" stroke="black" points="43.2,-515.2 43.2,-546 368.13,-546 368.13,-515.2 43.2,-515.2"/>
<text text-anchor="start" x="50.2" y="-527.4" font-family="Arial" font-size="14.00">rating_after </text>
<text text-anchor="start" x="124.91" y="-527.4" font-family="Arial" font-size="14.00" fill="#666666">[integer]</text>
<polygon fill="none" stroke="black" points="43.2,-484.4 43.2,-515.2 368.13,-515.2 368.13,-484.4 43.2,-484.4"/>
<text text-anchor="start" x="50.2" y="-496.6" font-family="Arial" font-size="14.00">xp_gained </text>
<text text-anchor="start" x="118.7" y="-496.6" font-family="Arial" font-size="14.00" fill="#666666">[integer]</text>
<polygon fill="none" stroke="black" points="43.2,-453.6 43.2,-484.4 368.13,-484.4 368.13,-453.6 43.2,-453.6"/>
<text text-anchor="start" x="50.2" y="-465.8" font-family="Arial" font-size="14.00">created_at </text>
<text text-anchor="start" x="120.25" y="-465.8" font-family="Arial" font-size="14.00" fill="#666666">[timestamp with time zone]</text>
</g>
<!-- public.match_participants&#45;&gt;public.matches -->
<g id="edge1" class="edge">
<title>public.match_participants:match_id&#45;&gt;public.matches:id</title>
<path fill="none" stroke="black" d="M379.23,-682.23C426.6,-658.2 399.54,-458.26 368.13,-410.4 346.27,-377.08 307.98,-407.65 286,-374.4 262.18,-338.36 241.8,-277.2 285,-277.2"/>
<polygon fill="black" stroke="black" points="379.19,-682.24 368.43,-680.14 374,-683.46 369.78,-684.45 369.78,-684.45 369.78,-684.45 374,-683.46 370.48,-688.91 379.19,-682.24"/>
<text text-anchor="start" x="376.13" y="-694.6" font-family="Arial" font-size="10.00">FOREIGN KEY (match_id) REFERENCES matches(id)</text>
</g>
<!-- public.match_actions -->
<g id="node3" class="node">
<title>public.match_actions</title>
<polygon fill="#efefef" stroke="none" points="472.69,-684.6 472.69,-720.2 764.64,-720.2 764.64,-684.6 472.69,-684.6"/>
<polygon fill="none" stroke="black" points="472.69,-684.6 472.69,-720.2 764.64,-720.2 764.64,-684.6 472.69,-684.6"/>
<text text-anchor="start" x="479.69" y="-698" font-family="Arial Bold" font-size="18.00">public.match_actions</text>
<text text-anchor="start" x="633.15" y="-698" font-family="Arial" font-size="14.00">    </text>
<text text-anchor="start" x="664.27" y="-698" font-family="Arial" font-size="14.00" fill="#666666">[BASE TABLE]</text>
<polygon fill="none" stroke="black" points="472.69,-653.8 472.69,-684.6 764.64,-684.6 764.64,-653.8 472.69,-653.8"/>
<text text-anchor="start" x="479.69" y="-666" font-family="Arial" font-size="14.00">match_id </text>
<text text-anchor="start" x="540.39" y="-666" font-family="Arial" font-size="14.00" fill="#666666">[uuid]</text>
<polygon fill="none" stroke="black" points="472.69,-623 472.69,-653.8 764.64,-653.8 764.64,-623 472.69,-623"/>
<text text-anchor="start" x="479.69" y="-635.2" font-family="Arial" font-size="14.00">action_seq </text>
<text text-anchor="start" x="551.3" y="-635.2" font-family="Arial" font-size="14.00" fill="#666666">[integer]</text>
<polygon fill="none" stroke="black" points="472.69,-592.2 472.69,-623 764.64,-623 764.64,-592.2 472.69,-592.2"/>
<text text-anchor="start" x="479.69" y="-604.4" font-family="Arial" font-size="14.00">action_id </text>
<text text-anchor="start" x="539.62" y="-604.4" font-family="Arial" font-size="14.00" fill="#666666">[uuid]</text>
<polygon fill="none" stroke="black" points="472.69,-561.4 472.69,-592.2 764.64,-592.2 764.64,-561.4 472.69,-561.4"/>
<text text-anchor="start" x="479.69" y="-573.6" font-family="Arial" font-size="14.00">actor_seat </text>
<text text-anchor="start" x="548.95" y="-573.6" font-family="Arial" font-size="14.00" fill="#666666">[smallint]</text>
<polygon fill="none" stroke="black" points="472.69,-530.6 472.69,-561.4 764.64,-561.4 764.64,-530.6 472.69,-530.6"/>
<text text-anchor="start" x="479.69" y="-542.8" font-family="Arial" font-size="14.00">action_type </text>
<text text-anchor="start" x="555.19" y="-542.8" font-family="Arial" font-size="14.00" fill="#666666">[varchar(20)]</text>
<polygon fill="none" stroke="black" points="472.69,-499.8 472.69,-530.6 764.64,-530.6 764.64,-499.8 472.69,-499.8"/>
<text text-anchor="start" x="479.69" y="-512" font-family="Arial" font-size="14.00">payload </text>
<text text-anchor="start" x="532.62" y="-512" font-family="Arial" font-size="14.00" fill="#666666">[jsonb]</text>
<polygon fill="none" stroke="black" points="472.69,-469 472.69,-499.8 764.64,-499.8 764.64,-469 472.69,-469"/>
<text text-anchor="start" x="479.69" y="-481.2" font-family="Arial" font-size="14.00">created_at </text>
<text text-anchor="start" x="549.74" y="-481.2" font-family="Arial" font-size="14.00" fill="#666666">[timestamp with time zone]</text>
</g>
<!-- public.match_actions&#45;&gt;public.matches -->
<g id="edge2" class="edge">
<title>public.match_actions:match_id&#45;&gt;public.matches:id</title>
<path fill="none" stroke="black" d="M461.77,-666.58C421.87,-643.26 450.7,-471.14 472.69,-425.8 488.71,-392.77 521.21,-407.38 537.33,-374.4 556.3,-335.59 581.53,-277.2 538.33,-277.2"/>
<polygon fill="black" stroke="black" points="461.7,-666.56 470.22,-673.47 466.86,-667.92 471.05,-669.03 471.05,-669.03 471.05,-669.03 466.86,-667.92 472.52,-664.76 461.7,-666.56"/>
<text text-anchor="start" x="478.69" y="-653.2" font-family="Arial" font-size="10.00">FOREIGN KEY (match_id) REFERENCES matches(id)</text>
</g>
</g>
</svg>
